<svg width="186" height="29" viewBox="0 0 186 29" fill="none" xmlns="http://www.w3.org/2000/svg">
<path d="M47.0799 8.74771C44.0849 8.74771 42.5547 11.0875 42.5547 14.6124C42.5547 17.9444 44.2094 20.445 47.0799 20.445C50.3261 20.445 51.5431 17.4964 51.5431 14.6124C51.5408 11.6007 50.0113 8.74771 47.0789 8.74771H47.0799ZM39.122 0H42.6795V8.45922H42.7425C43.7099 6.85744 45.7383 5.86368 47.5485 5.86368C52.6347 5.86368 55.101 9.83859 55.101 14.6776C55.101 19.1305 52.9168 23.3285 48.1411 23.3285C45.9564 23.3285 43.6158 22.7849 42.5544 20.6052H42.4926V22.8814H39.1217V0.000499174L39.122 0Z" fill="#6A615A"/>
<path d="M67.4353 17.3051C67.4353 19.612 65.0008 20.446 63.4405 20.446C62.1917 20.446 60.1626 19.9637 60.1626 18.3303C60.1626 16.407 61.5364 15.8298 63.0662 15.5732C64.626 15.2851 66.3427 15.318 67.4353 14.581V17.3051ZM82.66 5.86368C80.5378 5.86368 78.6962 6.9851 77.6349 8.81279L77.5727 8.74771V6.31287H74.2022V20.4228C72.1731 20.4457 71.984 20.4457 71.8293 20.4457C71.1741 20.4457 70.9864 20.0931 70.9864 19.1957V10.6706C70.9864 7.17872 67.6786 5.86368 64.5255 5.86368C60.9677 5.86368 57.4418 7.11302 57.1929 11.3763H60.7499C60.9065 9.58152 62.31 8.74771 64.3076 8.74771C65.743 8.74771 67.647 9.10128 67.647 10.9916C67.647 13.1385 65.3687 12.8498 62.8095 13.3314C59.8135 13.6827 56.5993 14.3576 56.5993 18.4894C56.5993 21.7272 59.2204 23.3285 62.1225 23.3285C64.0266 23.3285 66.3044 22.7195 67.7097 21.312C67.9894 22.817 69.0204 23.3285 70.4557 23.3285C71.0485 23.3285 72.1718 23.1049 77.7375 22.9127V22.88H77.7596V13.1075C77.7596 10.6711 79.2892 8.74821 81.6606 8.74821C83.7515 8.74821 84.751 9.87038 84.8127 12.4655V22.8805H88.3719V11.5047C88.3788 7.78786 86.1619 5.86418 82.6658 5.86418" fill="#6A615A"/>
<path d="M98.7348 20.4457C101.918 20.4457 103.26 17.4649 103.26 14.5801C103.26 10.9283 101.544 8.74771 98.7971 8.74771C95.4575 8.74771 94.2714 11.7924 94.2714 14.7721C94.2714 17.6244 95.6441 20.445 98.7354 20.445L98.7348 20.4457ZM106.693 22.8805H103.322V20.6374H103.26C102.324 22.5282 100.294 23.3285 98.2661 23.3285C93.18 23.3285 90.7138 19.4506 90.7138 14.4845C90.7138 8.49201 94.1784 5.86418 97.7055 5.86418C99.7331 5.86418 101.98 6.63378 103.072 8.45922H103.136V0.00074876H106.693V22.881L106.693 22.8805Z" fill="#6A615A"/>
<path d="M120.831 11.8571C120.55 9.83821 119.115 8.74796 117.149 8.74796C115.307 8.74796 112.717 9.74197 112.717 14.7732C112.717 17.5295 113.902 20.446 116.993 20.446C119.052 20.446 120.487 19.0343 120.831 16.6628H124.389C123.733 20.9569 121.144 23.3285 116.993 23.3285C111.937 23.3285 109.159 19.6441 109.159 14.7732C109.159 9.77438 111.812 5.86468 117.117 5.86468C120.862 5.86468 124.046 7.78724 124.389 11.8573H120.837L120.831 11.8571Z" fill="#6A615A"/>
<path d="M136.626 17.3051C136.626 19.612 134.191 20.446 132.63 20.446C131.383 20.446 129.354 19.9637 129.354 18.3303C129.354 16.407 130.729 15.8298 132.256 15.5732C133.817 15.2851 135.534 15.318 136.626 14.581V17.3051ZM161.407 5.86368C159.066 5.86368 157.537 6.92177 156.351 8.6198C155.633 6.73002 153.792 5.86368 151.825 5.86368C149.266 5.86368 147.924 6.9851 146.863 8.6198H146.769V6.31287H143.397V20.4228C141.368 20.4457 141.18 20.4457 141.023 20.4457C140.369 20.4457 140.181 20.0931 140.181 19.1957V10.6706C140.181 7.17872 136.874 5.86368 133.72 5.86368C130.163 5.86368 126.636 7.11302 126.386 11.3763H129.945C130.101 9.58152 131.506 8.74771 133.503 8.74771C134.939 8.74771 136.842 9.10128 136.842 10.9916C136.842 13.1385 134.563 12.8498 132.005 13.3314C129.008 13.6827 125.794 14.3576 125.794 18.4894C125.794 21.7272 128.415 23.3285 131.318 23.3285C133.222 23.3285 135.499 22.7195 136.904 21.312C137.185 22.817 138.214 23.3285 139.651 23.3285C140.243 23.3285 141.367 23.1049 146.882 22.9127V22.88H146.955V13.0429C146.955 10.2872 148.641 8.74821 150.482 8.74821C152.635 8.74821 153.322 9.96525 153.322 12.2423V22.8805H156.879V13.1711C156.879 10.3825 157.909 8.74846 160.313 8.74846C163.09 8.74846 163.246 10.5749 163.246 13.2037V22.8804H166.804V11.4409C166.805 7.40225 164.81 5.86418 161.41 5.86418" fill="#6A615A"/>
<path d="M177.979 8.74771C174.983 8.74771 173.454 11.0875 173.454 14.6124C173.454 17.9444 175.108 20.445 177.979 20.445C181.225 20.445 182.443 17.4964 182.443 14.6124C182.443 11.6007 180.911 8.74771 177.979 8.74771ZM170.021 6.31288H173.392V8.55597H173.455C174.453 6.66595 176.388 5.86368 178.448 5.86368C183.534 5.86368 186 9.83859 186 14.6776C186 19.1305 183.816 23.3285 179.042 23.3285C176.982 23.3285 174.765 22.5597 173.642 20.7344H173.579V29H170.021V6.31288Z" fill="#6A615A"/>
<path d="M26.6839 22.8316H0L12.461 1.08801e-06H39.1451L26.6839 22.8316Z" fill="#6A615A"/>
</svg>
