<svg xmlns="http://www.w3.org/2000/svg" width="278" height="33" fill="none" viewBox="0 0 278 33"><path fill="#6A615A" d="M0.826878 19.7466C0.674531 19.7466 0.553613 19.8668 0.533915 20.0381L0 24.1749L0.533915 28.2404C0.553613 28.4118 0.674457 28.5311 0.826878 28.5311C0.97443 28.5311 1.09461 28.4126 1.11814 28.2419L1.75099 24.1748L1.11814 20.0373C1.09535 19.8667 0.973692 19.7466 0.826878 19.7466ZM3.82948 17.4864C3.80432 17.3086 3.67949 17.186 3.52559 17.186C3.37089 17.186 3.24289 17.3126 3.22171 17.4864C3.22171 17.488 2.50402 24.1749 2.50402 24.1749L3.22171 30.7153C3.24215 30.8907 3.37015 31.0173 3.52559 31.0173C3.67868 31.0173 3.80358 30.8939 3.82866 30.7169L4.64521 24.1749L3.82948 17.4864ZM15.1396 11.3169C14.8451 11.3169 14.6017 11.5627 14.5876 11.8751L14.016 24.1805L14.5876 32.1329C14.6025 32.4436 14.8451 32.6887 15.1396 32.6887C15.4325 32.6887 15.6751 32.4428 15.6924 32.1313V32.1337L16.3386 24.1805L15.6924 11.8751C15.6751 11.5627 15.4324 11.3169 15.1396 11.3169ZM9.28585 15.5938C9.05973 15.5938 8.87522 15.778 8.85707 16.0238L8.21323 24.1772L8.85707 32.0655C8.87433 32.3098 9.05966 32.494 9.28585 32.494C9.50962 32.494 9.69413 32.3098 9.71383 32.0655L10.4456 24.1772L9.71383 16.0222C9.69413 15.778 9.50962 15.5938 9.28585 15.5938ZM21.0883 32.6879C21.4535 32.6879 21.7503 32.3875 21.7652 32.0031L22.3259 24.1845L21.766 7.80151C21.7511 7.41704 21.4542 7.11671 21.0892 7.11671C20.7209 7.11671 20.4233 7.41787 20.4115 7.80233L19.9144 24.1836L20.4115 32.0055C20.4233 32.3868 20.7208 32.6879 21.0883 32.6879ZM33.2669 32.7248C33.7694 32.7248 34.184 32.3027 34.1934 31.7837L34.5845 24.1893L34.1933 5.2682C34.1847 4.75001 33.7694 4.32717 33.2668 4.32717C32.7635 4.32717 32.3481 4.74926 32.3402 5.26903L31.9908 24.1829C31.9908 24.1949 32.3402 31.7884 32.3402 31.7884C32.3482 32.3026 32.7643 32.7248 33.2669 32.7248ZM27.1312 32.6952C27.5687 32.6952 27.9212 32.3371 27.933 31.8806V31.8862L28.4087 24.1861L27.9321 7.68464C27.9203 7.22808 27.5678 6.87093 27.1304 6.87093C26.6899 6.87093 26.3374 7.22816 26.328 7.68464L25.9048 24.1869L26.3288 31.8854C26.3382 32.3371 26.6907 32.6952 27.1312 32.6952ZM12.2013 32.6231C12.4612 32.6231 12.6717 32.4108 12.6913 32.1313L13.3808 24.1773L12.6913 16.611C12.6725 16.3315 12.4621 16.1208 12.2013 16.1208C11.9376 16.1208 11.7271 16.333 11.7106 16.6142L11.1036 24.1773L11.7106 32.1305C11.7279 32.4108 11.9375 32.6231 12.2013 32.6231ZM6.39399 32.1874C6.58397 32.1874 6.73786 32.0344 6.75985 31.8229L7.53405 24.1757L6.76058 16.2401C6.73779 16.0279 6.58389 15.8748 6.39392 15.8748C6.20151 15.8748 6.04762 16.0287 6.02799 16.2401L5.34645 24.1757L6.02799 31.8213C6.04688 32.0335 6.20077 32.1874 6.39399 32.1874ZM30.1873 7.40989C29.7123 7.40989 29.3314 7.79518 29.322 8.28854L28.9357 24.1877L29.322 31.8381C29.3315 32.3251 29.7115 32.7104 30.1873 32.7104C30.6616 32.7104 31.0401 32.3259 31.051 31.8325V31.8389L31.4844 24.1885L31.051 8.28689C31.04 7.79518 30.6615 7.40989 30.1873 7.40989ZM18.1029 32.704C18.4312 32.704 18.7021 32.4308 18.7178 32.0824L19.3208 24.1828L18.7178 9.06297C18.7013 8.71372 18.4312 8.44145 18.1029 8.44145C17.7716 8.44145 17.5015 8.71455 17.4874 9.06297L16.9534 24.1828L17.4882 32.0856C17.5014 32.4308 17.7715 32.704 18.1029 32.704ZM24.8369 31.9583V31.9542L25.3551 24.1853L24.8369 7.25051C24.8243 6.83007 24.4992 6.50009 24.0979 6.50009C23.6943 6.50009 23.3693 6.82924 23.3583 7.25051L22.8982 24.1845L23.3591 31.9575C23.3701 32.3739 23.6952 32.7031 24.098 32.7031C24.5 32.7031 24.8235 32.3739 24.837 31.9551L24.8369 31.9583ZM64.0327 14.4236C62.8023 14.4236 61.6285 14.6775 60.559 15.1348C59.8444 6.87891 53.0571 0.402588 44.7779 0.402588C42.7521 0.402588 40.7773 0.809479 39.0334 1.49744C38.3558 1.76496 38.1752 2.04046 38.1689 2.57468V31.6483C38.176 32.2089 38.6023 32.6758 39.1387 32.7311C39.1615 32.7335 63.8718 32.7463 64.0321 32.7463C68.9914 32.7463 73.0125 28.6448 73.0125 23.5854C73.0124 18.5259 68.9922 14.4236 64.0327 14.4236ZM36.3331 2.5491C35.7936 2.5491 35.3508 3.00084 35.3429 3.55583L34.9377 24.1917L35.3437 31.6811C35.3508 32.2282 35.7937 32.6791 36.3331 32.6791C36.8709 32.6791 37.3138 32.2282 37.3216 31.6732V31.682L37.7621 24.1917L37.3216 3.55425C37.3138 3.00084 36.8709 2.5491 36.3331 2.5491Z"/><path fill="#6A615A" d="M93.0645 14.1988C89.9142 13.4445 89.0619 13.0414 89.0619 11.7701C89.0619 10.8738 89.772 9.94635 91.9002 9.94635C93.7187 9.94635 95.1392 10.698 96.4153 12.0286L99.2816 9.19693C97.4074 7.20229 95.137 6.01633 92.0448 6.01633C88.1238 6.01633 84.9455 8.27193 84.9455 11.9457C84.9455 15.9347 87.5023 17.1209 91.1625 17.9864C94.9088 18.8522 95.5911 19.4331 95.5911 20.7351C95.5911 22.2674 94.4804 22.9337 92.1286 22.9337C90.2264 22.9337 88.4382 22.2696 87.0459 20.6166L84.1791 23.2209C85.6832 25.4765 88.5821 26.8924 91.9 26.8924C97.3253 26.8924 99.7095 24.2906 99.7095 20.4461C99.7097 16.0488 96.217 14.9507 93.0645 14.1988ZM111.352 6.01633C105.931 6.01633 102.725 10.2951 102.725 16.4544C102.725 22.6139 105.931 26.89 111.352 26.89C116.772 26.89 119.983 22.6139 119.983 16.4544C119.983 10.2951 116.772 6.01633 111.352 6.01633ZM111.352 22.8746C108.146 22.8746 106.809 20.0689 106.809 16.4566C106.809 12.8422 108.145 10.0364 111.352 10.0364C114.563 10.0364 115.894 12.8422 115.894 16.4566C115.894 20.0689 114.563 22.8746 111.352 22.8746ZM136.024 17.6994C136.024 20.9368 134.459 22.9337 131.935 22.9337C129.409 22.9337 127.877 20.8798 127.877 17.6426V6.33188H123.9V17.6996C123.9 23.5957 127.139 26.8924 131.935 26.8924C136.988 26.8924 139.998 23.508 139.998 17.6428V6.33188H136.024V17.6994ZM157.143 14.8939C157.143 16.0228 157.198 18.5654 157.198 19.3172C156.942 18.7953 156.29 17.785 155.808 17.0309L148.765 6.32964H144.962V26.5749H148.881V17.6664C148.881 16.5377 148.825 13.9949 148.825 13.243C149.079 13.7625 149.736 14.7753 150.215 15.5296L157.513 26.5747H161.061V6.32943H157.142L157.143 14.8939ZM172.387 6.33188H166.17V26.5769H172.1C177.211 26.5769 182.266 23.5672 182.266 16.4544C182.266 9.04987 178.064 6.33188 172.387 6.33188ZM172.1 22.6444H170.145V10.2666H172.245C176.448 10.2666 178.18 12.318 178.18 16.4544C178.18 20.1567 176.275 22.6444 172.1 22.6444ZM194.558 10.0341C196.346 10.0341 197.482 10.8453 198.193 12.2327L201.883 10.499C200.633 7.86858 198.36 6.01633 194.614 6.01633C189.424 6.01633 185.786 10.2951 185.786 16.4544C185.786 22.8439 189.277 26.89 194.471 26.89C198.078 26.89 200.463 25.1848 201.825 22.322L198.476 20.2966C197.426 22.092 196.374 22.8724 194.585 22.8724C191.605 22.8724 189.873 20.0949 189.873 16.4544C189.871 12.6975 191.58 10.0341 194.558 10.0341ZM209.299 6.33188H205.325V26.5769H217.269V22.5829H209.299V6.33188ZM227.74 6.01633C222.315 6.01633 219.109 10.2951 219.109 16.4544C219.109 22.6139 222.315 26.89 227.74 26.89C233.161 26.89 236.369 22.6139 236.369 16.4544C236.37 10.2951 233.161 6.01633 227.74 6.01633ZM227.74 22.8746C224.529 22.8746 223.198 20.0689 223.198 16.4566C223.198 12.8422 224.529 10.0364 227.74 10.0364C230.944 10.0364 232.278 12.8422 232.278 16.4566C232.278 20.0689 230.944 22.8746 227.74 22.8746ZM252.408 17.6994C252.408 20.9368 250.85 22.9337 248.324 22.9337C245.793 22.9337 244.263 20.8798 244.263 17.6426V6.33188H240.288V17.6996C240.288 23.5957 243.525 26.8924 248.324 26.8924C253.376 26.8924 256.385 23.508 256.385 17.6428V6.33188H252.408V17.6994ZM267.568 6.33188H261.354V26.5769H267.284C272.397 26.5769 277.448 23.5672 277.448 16.4544C277.448 9.04987 273.247 6.33188 267.568 6.33188ZM267.284 22.6444H265.326V10.2666H267.428C271.626 10.2666 273.359 12.318 273.359 16.4544C273.359 20.1567 271.456 22.6444 267.284 22.6444Z"/></svg>