<svg xmlns="http://www.w3.org/2000/svg" width="162" height="51" fill="none" viewBox="0 0 162 51"><path fill="#6A615A" d="M25.3373 0C20.3814 0 15.5367 1.49288 11.416 4.28998C7.29524 7.08708 4.08353 11.0627 2.18696 15.7141C0.290403 20.3655 -0.205831 25.4838 0.761028 30.4217C1.72789 35.3596 4.11441 39.8954 7.6188 43.4554C11.1232 47.0154 15.5881 49.4398 20.4488 50.422C25.3095 51.4042 30.3478 50.9001 34.9265 48.9734C39.5052 47.0468 43.4187 43.7841 46.1721 39.5979C48.9255 35.4118 50.3951 30.4902 50.3951 25.4555C50.3951 18.7043 47.7551 12.2297 43.0558 7.4558C38.3566 2.68196 31.983 0 25.3373 0ZM36.8284 36.7142C36.7216 36.8922 36.5813 37.0472 36.4155 37.1701C36.2497 37.2929 36.0617 37.3814 35.8622 37.4304C35.6627 37.4794 35.4557 37.488 35.253 37.4556C35.0502 37.4233 34.8558 37.3507 34.6807 37.2419C28.796 33.588 21.3902 32.7634 12.6633 34.7876C12.4634 34.834 12.2565 34.8399 12.0543 34.8051C11.8522 34.7702 11.6587 34.6953 11.4851 34.5846C11.3115 34.4738 11.161 34.3293 11.0423 34.1595C10.9236 33.9896 10.839 33.7976 10.7933 33.5946C10.7477 33.3915 10.7418 33.1813 10.7761 32.9759C10.8104 32.7705 10.8842 32.5741 10.9933 32.3977C11.1023 32.2213 11.2445 32.0684 11.4117 31.9478C11.5789 31.8272 11.7679 31.7413 11.9678 31.6949C21.5133 29.4785 29.7008 30.4322 36.306 34.5324C36.4811 34.6412 36.6334 34.7839 36.7542 34.9525C36.8749 35.1211 36.9618 35.3123 37.0099 35.515C37.0579 35.7177 37.0662 35.9281 37.0342 36.134C37.0022 36.34 36.9305 36.5374 36.8234 36.7152L36.8284 36.7142ZM39.8958 29.7835C39.6246 30.232 39.1893 30.5529 38.6854 30.6755C38.1816 30.798 37.6504 30.7124 37.2087 30.4373C30.4744 26.2323 20.2063 25.0144 12.239 27.4707C11.9921 27.5518 11.7317 27.5822 11.4731 27.56C11.2145 27.5378 10.9628 27.4635 10.7328 27.3413C10.5028 27.2192 10.299 27.0518 10.1334 26.8488C9.9678 26.6458 9.84367 26.4113 9.76827 26.159C9.69287 25.9067 9.66772 25.6417 9.69426 25.3795C9.72081 25.1172 9.79854 24.8629 9.9229 24.6315C10.0473 24.4001 10.2158 24.1962 10.4186 24.0317C10.6214 23.8672 10.8544 23.7454 11.1041 23.6734C20.2043 20.8684 31.5202 22.2266 39.2523 27.0558C39.471 27.192 39.6611 27.3706 39.8118 27.5815C39.9625 27.7924 40.0708 28.0314 40.1306 28.2848C40.1903 28.5382 40.2004 28.801 40.1601 29.0584C40.1198 29.3157 40.03 29.5625 39.8958 29.7846V29.7835ZM40.159 22.5651C32.0816 17.6922 18.7581 17.2438 11.048 19.6167C10.4563 19.7895 9.82136 19.7188 9.28051 19.4199C8.73966 19.121 8.33632 18.6178 8.15766 18.0192C7.979 17.4206 8.03937 16.7747 8.32572 16.2209C8.61207 15.6672 9.10141 15.2502 9.68797 15.06C18.5389 12.3303 33.2535 12.8579 42.5519 18.4649C43.0787 18.7909 43.4578 19.3148 43.6069 19.9229C43.7559 20.531 43.663 21.1744 43.3482 21.7134C43.0334 22.2523 42.5221 22.6434 41.9253 22.8019C41.3285 22.9604 40.6942 22.8735 40.16 22.56L40.159 22.5651ZM68.4533 23.4984C64.1269 22.4502 63.3563 21.7152 63.3563 20.1689C63.3563 18.7089 64.7094 17.7288 66.7219 17.7288C68.8868 17.8075 70.9655 18.6098 72.6356 20.0113C72.666 20.0342 72.7006 20.0507 72.7374 20.0598C72.7742 20.0689 72.8124 20.0704 72.8498 20.0641C72.8871 20.0585 72.923 20.0453 72.9551 20.0252C72.9873 20.0051 73.0151 19.9786 73.0369 19.9472L75.1496 16.9226C75.1912 16.8626 75.2089 16.7887 75.1988 16.716C75.1888 16.6433 75.1518 16.5772 75.0955 16.5312C72.7541 14.5895 69.8111 13.5536 66.789 13.6073C62.1173 13.6073 58.8547 16.4539 58.8547 20.5308C58.8547 24.9025 61.67 26.4479 66.5338 27.6414C70.674 28.6103 71.3726 29.4216 71.3726 30.8724C71.3726 32.4798 69.9595 33.4791 67.6857 33.4791C65.1069 33.46 62.6364 32.4232 60.7963 30.5877C60.7379 30.5389 60.6636 30.5142 60.5881 30.5186C60.5507 30.5216 60.5143 30.5322 60.481 30.5496C60.4476 30.5671 60.418 30.591 60.3939 30.6202L58.0251 33.4842C57.9772 33.5413 57.9534 33.6151 57.9586 33.6899C57.9638 33.7646 57.9978 33.8343 58.0531 33.8839C60.6642 36.2879 64.0657 37.6134 67.5896 37.5998C72.6236 37.5998 75.8761 34.806 75.8761 30.4831C75.8852 26.8322 73.7335 24.8109 68.4643 23.5086L68.4533 23.4984ZM87.2631 19.1644C86.2145 19.1504 85.1769 19.3834 84.2318 19.8452C83.2866 20.307 82.4597 20.9851 81.8158 21.8261V19.8129C81.8158 19.7365 81.786 19.6633 81.7329 19.6092C81.6798 19.555 81.6078 19.5245 81.5326 19.5243H77.6586C77.6213 19.5243 77.5844 19.5317 77.5499 19.5462C77.5155 19.5608 77.4842 19.5821 77.4579 19.6089C77.4316 19.6357 77.4108 19.6676 77.3966 19.7026C77.3824 19.7376 77.3752 19.7751 77.3753 19.8129V42.1861C77.3752 42.2239 77.3824 42.2614 77.3966 42.2964C77.4108 42.3314 77.4316 42.3633 77.4579 42.3901C77.4842 42.4169 77.5155 42.4382 77.5499 42.4528C77.5844 42.4673 77.6213 42.4747 77.6586 42.4747H81.5326C81.6078 42.4745 81.6798 42.444 81.7329 42.3898C81.786 42.3357 81.8158 42.2625 81.8158 42.1861V35.1262C82.4835 35.9286 83.3189 36.5699 84.2612 37.0033C85.2035 37.4366 86.229 37.6511 87.2631 37.6312C91.3173 37.6312 95.4216 34.4613 95.4216 28.3998C95.4216 22.3384 91.3213 19.1644 87.2681 19.1644H87.2631ZM90.917 28.3979C90.917 31.4845 89.0455 33.6377 86.3664 33.6377C83.7173 33.6377 81.7188 31.3859 81.7188 28.3979C81.7188 25.4098 83.7203 23.1578 86.3664 23.1578C89.0125 23.1578 90.921 25.3661 90.921 28.3979H90.917ZM105.941 19.1644C104.147 19.1986 102.402 19.7706 100.927 20.8086C99.4514 21.8466 98.3109 23.3044 97.6483 24.9987C96.9857 26.693 96.8306 28.5485 97.2026 30.3321C97.5745 32.1156 98.4569 33.7477 99.7389 35.0235C101.021 36.2993 102.645 37.1619 104.408 37.5029C106.171 37.844 107.994 37.6483 109.648 36.9405C111.302 36.2326 112.713 35.0442 113.704 33.5243C114.695 32.0045 115.222 30.221 115.219 28.3979C115.213 27.1708 114.968 25.957 114.497 24.827C114.026 23.6969 113.34 22.6729 112.477 21.8141C111.614 20.9554 110.592 20.2791 109.47 19.8242C108.348 19.3694 107.149 19.1451 105.941 19.1644ZM105.941 33.6683C105.276 33.6616 104.619 33.5182 104.01 33.2467C103.401 32.9752 102.852 32.5812 102.397 32.0885C101.942 31.5959 101.59 31.0147 101.362 30.3801C101.134 29.7454 101.034 29.0704 101.07 28.3958C101.027 27.7281 101.119 27.0585 101.341 26.4284C101.563 25.7984 101.909 25.2213 102.36 24.733C102.81 24.2447 103.354 23.8556 103.959 23.5897C104.563 23.3239 105.215 23.1869 105.874 23.1874C106.541 23.1917 107.201 23.3333 107.813 23.6036C108.425 23.874 108.977 24.2675 109.435 24.7604C109.893 25.2533 110.248 25.8355 110.479 26.4716C110.71 27.1078 110.811 27.7848 110.778 28.4619C110.819 29.132 110.724 29.8036 110.5 30.4351C110.275 31.0665 109.925 31.6442 109.471 32.1325C109.017 32.6207 108.47 33.0089 107.862 33.2731C107.254 33.5373 106.6 33.6718 105.939 33.6683H105.941ZM126.369 19.5243H122.106V15.0976C122.106 15.0213 122.076 14.9482 122.023 14.8942C121.97 14.8403 121.897 14.81 121.822 14.81H117.949C117.874 14.81 117.802 14.8402 117.749 14.8941C117.695 14.948 117.665 15.0212 117.665 15.0976V19.5253H115.803C115.765 19.5254 115.729 19.533 115.694 19.5476C115.66 19.5622 115.629 19.5835 115.603 19.6103C115.576 19.6371 115.556 19.6689 115.542 19.7038C115.527 19.7388 115.52 19.7763 115.52 19.8141V23.1964C115.52 23.2342 115.527 23.2717 115.542 23.3067C115.556 23.3416 115.576 23.3734 115.603 23.4002C115.629 23.427 115.66 23.4483 115.694 23.4629C115.729 23.4775 115.765 23.4851 115.803 23.4852H117.665V32.2378C117.665 35.7749 119.397 37.5672 122.815 37.5672C124.084 37.5988 125.337 37.2828 126.444 36.6523C126.487 36.6273 126.524 36.591 126.549 36.5473C126.574 36.5035 126.587 36.4539 126.587 36.4032V33.1823C126.587 33.1332 126.575 33.085 126.551 33.0422C126.528 32.9993 126.494 32.9633 126.453 32.9374C126.412 32.9116 126.365 32.8968 126.316 32.8945C126.268 32.8921 126.22 32.9024 126.177 32.9241C125.475 33.2948 124.694 33.4863 123.903 33.4822C122.66 33.4822 122.102 32.9088 122.102 31.6238V23.4903H126.365C126.44 23.4901 126.512 23.4596 126.565 23.4057C126.617 23.3518 126.647 23.2788 126.647 23.2027V19.8201C126.648 19.7824 126.642 19.7448 126.629 19.7097C126.615 19.6745 126.595 19.6426 126.569 19.6157C126.543 19.5888 126.512 19.5675 126.477 19.5532C126.443 19.5389 126.406 19.5319 126.369 19.5325V19.5243ZM141.223 19.5415V18.9977C141.223 17.3984 141.823 16.6847 143.181 16.6847C143.926 16.6929 144.664 16.8305 145.364 17.0914C145.407 17.1058 145.452 17.1096 145.496 17.1026C145.541 17.0956 145.583 17.0779 145.619 17.0511C145.656 17.0243 145.685 16.989 145.706 16.9483C145.726 16.9076 145.736 16.8626 145.736 16.8169V13.5004C145.737 13.4386 145.717 13.3783 145.681 13.3285C145.645 13.2787 145.594 13.242 145.536 13.2239C144.493 12.9001 143.407 12.7413 142.317 12.7532C138.739 12.7532 136.847 14.8008 136.847 18.6713V19.5039H134.986C134.911 19.5042 134.839 19.5346 134.785 19.5884C134.732 19.6423 134.702 19.7153 134.702 19.7916V23.1915C134.702 23.268 134.732 23.3412 134.785 23.3953C134.838 23.4494 134.91 23.4799 134.986 23.4802H136.847V36.9796C136.847 37.0173 136.854 37.0548 136.868 37.0898C136.882 37.1247 136.903 37.1565 136.929 37.1833C136.956 37.2102 136.987 37.2314 137.021 37.246C137.055 37.2606 137.092 37.2682 137.129 37.2684H141.003C141.079 37.2684 141.151 37.238 141.204 37.1838C141.258 37.1297 141.288 37.0561 141.288 36.9796V23.4852H144.905L150.445 36.9807C149.815 38.3989 149.197 38.6806 148.353 38.6806C147.601 38.6615 146.867 38.4498 146.217 38.0654C146.182 38.0466 146.145 38.0351 146.106 38.0315C146.067 38.0278 146.028 38.032 145.991 38.044C145.955 38.0569 145.921 38.0773 145.892 38.1038C145.863 38.1304 145.84 38.1627 145.824 38.1987L144.511 41.1246C144.481 41.1908 144.477 41.2661 144.5 41.3352C144.523 41.4043 144.57 41.462 144.633 41.4967C145.894 42.2224 147.322 42.5941 148.771 42.5734C151.631 42.5734 153.212 41.2191 154.606 37.5774L161.327 19.9351C161.344 19.8915 161.35 19.8444 161.345 19.7979C161.34 19.7514 161.324 19.7069 161.298 19.6682C161.272 19.6296 161.237 19.5979 161.196 19.576C161.156 19.5541 161.11 19.5426 161.064 19.5425H157.031C156.972 19.5425 156.915 19.5611 156.867 19.5958C156.819 19.6304 156.782 19.6793 156.763 19.7357L152.632 31.7244L148.106 19.7276C148.086 19.6731 148.05 19.6263 148.002 19.5933C147.955 19.5602 147.899 19.5424 147.842 19.5425H141.224L141.223 19.5415ZM132.616 19.5243H128.742C128.666 19.5243 128.594 19.5546 128.541 19.6088C128.488 19.6629 128.458 19.7364 128.458 19.8129V36.9827C128.458 37.0592 128.488 37.1327 128.541 37.1868C128.594 37.241 128.666 37.2715 128.742 37.2715H132.616C132.691 37.2712 132.763 37.2407 132.817 37.1866C132.87 37.1325 132.9 37.0592 132.9 36.9827V19.815C132.9 19.7771 132.893 19.7394 132.879 19.7043C132.864 19.6693 132.844 19.6374 132.817 19.6105C132.791 19.5837 132.759 19.5624 132.725 19.548C132.69 19.5335 132.653 19.5261 132.616 19.5263V19.5243ZM130.7 11.7071C130.151 11.7071 129.614 11.8726 129.157 12.1828C128.7 12.4929 128.344 12.9337 128.134 13.4495C127.923 13.9653 127.868 14.5328 127.976 15.0803C128.083 15.6278 128.348 16.1307 128.736 16.5254C129.125 16.92 129.62 17.1888 130.159 17.2976C130.698 17.4063 131.257 17.3502 131.764 17.1365C132.272 16.9227 132.706 16.5608 133.011 16.0966C133.316 15.6323 133.479 15.0865 133.479 14.5282C133.478 13.7799 133.185 13.0623 132.664 12.5332C132.143 12.0042 131.437 11.7071 130.7 11.7071Z"/></svg>