<svg width="191" height="25" viewBox="0 0 191 25" fill="none" xmlns="http://www.w3.org/2000/svg">
<path d="M69.4975 24.4903H64.5945V7.2937H58.2538V3.1376H75.8382V7.2937H69.4975V24.4903Z" fill="#6A615A"/>
<path d="M95.4405 24.4901H90.5082V3.13742H95.4405V24.4901Z" fill="#6A615A"/>
<path d="M182.47 20.2766H191V24.4908H177.539V3.13815H182.47V20.2766Z" fill="#6A615A"/>
<path d="M111.858 3.1376H119.848C125.742 3.1376 131.607 6.22461 131.607 13.7558C131.607 20.8549 125.859 24.4903 120.139 24.4903H111.858V3.1376ZM116.643 20.3051H119.702C123.817 20.3051 126.559 17.7665 126.559 13.7267C126.559 9.88911 123.787 7.2937 119.819 7.2937H116.643V20.3051Z" fill="#6A615A"/>
<path d="M158.977 24.4903H164.398L155.502 3.1376H150.411L141.43 24.4903H146.704L148.296 20.2774H157.4L158.977 24.4903ZM149.617 16.4834L152.87 8.13285L156.092 16.4834H149.617Z" fill="#6A615A"/>
<path d="M25.2801 6.2488L18.9607 12.4995L12.64 6.2488L18.9607 0.000776329L25.2801 6.2488Z" fill="#6A615A"/>
<path d="M25.2801 18.7493L18.9607 25L12.64 18.7493L18.9607 12.4995L25.2801 18.7493Z" fill="#6A615A"/>
<path d="M12.64 6.2488L6.3194 12.5L0 6.24934L6.3194 0L12.64 6.2488Z" fill="#6A615A"/>
<path d="M37.9194 6.24934L31.6 12.5L25.2801 6.2488L31.6 0L37.9194 6.24934Z" fill="#6A615A"/>
</svg>
