<svg width="185" height="43" viewBox="0 0 185 43" fill="none" xmlns="http://www.w3.org/2000/svg">
<path d="M29.4555 42.4001C29.2724 42.4001 11.017 42.3859 6.4994 41.1344C5.25206 40.7896 4.11496 40.1199 3.20063 39.1916C2.28629 38.2633 1.62642 37.1085 1.28629 35.8415C-0.700272 27.7955 -0.123818 15.3087 1.25027 7.11119C1.58979 5.84416 2.2492 4.6892 3.16322 3.76067C4.07724 2.83214 5.21415 2.16225 6.46137 1.81734C10.9309 0.58004 28.6639 0.512939 29.4165 0.512939C29.6006 0.512939 47.858 0.527173 52.3746 1.77871C53.6214 2.12408 54.7579 2.794 55.6719 3.72226C56.5858 4.65051 57.2455 5.80497 57.5857 7.07154C59.5362 15.0423 59.0808 27.577 57.6237 35.8436C57.2839 37.1102 56.6245 38.2648 55.7107 39.1931C54.797 40.1214 53.6604 40.7913 52.4136 41.1364C47.896 42.3849 29.6396 42.4001 29.4555 42.4001ZM23.5649 12.4803V30.4318L38.8209 21.4565L23.5649 12.4803Z" fill="#6A615A"/>
<path d="M85.3766 38.6026C84.1367 37.7028 83.2531 36.3835 82.8846 34.8815C82.3414 32.6893 82.0999 30.4311 82.167 28.1715V24.3711C82.0919 22.0777 82.3722 19.7866 82.9977 17.5817C83.4138 16.0609 84.3512 14.7411 85.6408 13.8607C87.0593 13.0227 88.6826 12.6102 90.3225 12.6712C91.9291 12.5849 93.5233 13 94.8911 13.8607C96.1199 14.7791 97.0106 16.0891 97.4211 17.5817C98.0132 19.7796 98.2803 22.0547 98.2137 24.3325V28.1298C98.2804 30.3941 98.0133 32.6558 97.4211 34.8399C97.0247 36.3392 96.1311 37.6535 94.8911 38.5609C93.4624 39.4084 91.8243 39.8212 90.1714 39.7504C88.4963 39.8611 86.8268 39.4615 85.3766 38.6026ZM91.9087 34.4982C92.3085 33.1439 92.4744 31.7295 92.3991 30.3177V22.1466C92.4729 20.7599 92.3069 19.3708 91.9087 18.0423C91.8073 17.6642 91.5852 17.331 91.2773 17.095C90.9694 16.8589 90.5931 16.7333 90.2074 16.7379C89.8267 16.7352 89.4562 16.8622 89.155 17.0987C88.8539 17.3351 88.6395 17.6674 88.5461 18.0423C88.1505 19.3713 87.9842 20.7599 88.0547 22.1466V30.3166C87.991 31.7256 88.144 33.1361 88.508 34.4972C88.6084 34.8729 88.8315 35.2027 89.1406 35.4327C89.4497 35.6627 89.8266 35.7791 90.2094 35.763C90.5894 35.768 90.9606 35.6473 91.2672 35.4192C91.5737 35.191 91.7989 34.8678 91.9087 34.4982ZM174.674 28.2457V29.5887L174.825 33.386C174.866 34.042 175.073 34.6763 175.426 35.2272C175.652 35.4444 175.924 35.607 176.22 35.703C176.517 35.799 176.831 35.8258 177.139 35.7816C177.448 35.7374 177.742 35.6231 178.001 35.4474C178.26 35.2717 178.477 35.039 178.635 34.7667C179.031 33.675 179.21 32.5149 179.164 31.3526L184.185 31.6576C184.22 31.963 184.233 32.2705 184.223 32.5777C184.223 34.9944 183.582 36.797 182.26 37.9865C180.709 39.2662 178.742 39.9093 176.748 39.789C173.878 39.789 171.877 38.8689 170.743 37.0654C169.609 35.2618 169.006 32.4242 169.006 28.6269V23.9878C169.134 17.4668 170.263 12.6915 176.897 12.6722C178.494 12.575 180.085 12.9621 181.465 13.7844C182.6 14.6273 183.403 15.8524 183.731 17.2411C184.231 19.3627 184.447 21.5432 184.373 23.7235V28.2101H174.665L174.674 28.2457ZM175.43 17.1984C175.076 17.7348 174.869 18.3568 174.829 19.001C174.716 19.8448 174.678 22.8369 174.678 22.8369V24.7168H178.907V22.8369C178.907 24.7168 178.869 19.8835 178.756 19.001C178.729 18.3424 178.521 17.7046 178.156 17.1598C177.981 16.9754 177.769 16.8319 177.534 16.7391C177.3 16.6464 177.048 16.6068 176.797 16.623C176.542 16.6132 176.289 16.6596 176.053 16.759C175.818 16.8583 175.607 17.0082 175.435 17.1984H175.43ZM71.2524 27.7465L64.6472 3.50477H70.4238C70.4238 3.50477 73.1259 15.6643 74.0487 21.38H74.1998C75.2496 15.3115 77.9027 3.50477 77.9027 3.50477H83.6792L76.996 27.7089V39.3315H71.2915V27.7465H71.2524Z" fill="#6A615A"/>
<path d="M116.942 13.1703V39.3691H112.412L111.921 36.1473H111.807C111.337 37.2416 110.56 38.1709 109.573 38.819C108.586 39.4671 107.432 39.8052 106.257 39.791C101.813 39.7799 101.318 35.9551 101.273 32.7333V13.1703H107.088V32.3855C107.029 33.2347 107.158 34.0865 107.465 34.8784C108.001 35.9449 109.391 35.6725 110.146 35.1469C110.582 34.8474 110.934 34.4374 111.166 33.9573V13.1703H116.942Z" fill="#6A615A"/>
<path d="M132.721 8.2621H126.944V39.3725H121.281V8.2621H115.507V3.50506H132.687V8.2621H132.721ZM165.91 17.3533C165.714 16.0048 165.121 14.7481 164.209 13.7481C163.308 12.9695 162.149 12.5708 160.968 12.6338C159.906 12.6312 158.867 12.9517 157.985 13.5539C157.072 14.1543 156.33 14.9876 155.833 15.9706H155.795V2.16202H150.207V39.3308H155.001L155.602 36.8379H155.715C156.177 37.716 156.87 38.4464 157.717 38.9475C158.631 39.4565 159.657 39.7207 160.7 39.7151C161.612 39.7444 162.513 39.4974 163.287 39.0055C164.061 38.5136 164.673 37.7991 165.046 36.9528C165.953 35.1116 166.447 32.2344 166.447 28.3608V24.2179C166.492 21.9171 166.313 19.6175 165.915 17.3522L165.91 17.3533ZM160.586 28.0548C160.609 29.5541 160.533 31.0534 160.36 32.5424C160.3 33.3673 160.026 34.1614 159.567 34.8442C159.391 35.0667 159.166 35.2447 158.91 35.3644C158.655 35.4842 158.376 35.5424 158.095 35.5345C157.623 35.5436 157.158 35.4193 156.751 35.1755C156.345 34.9317 156.013 34.578 155.793 34.1539V19.2697C155.956 18.5926 156.31 17.9789 156.813 17.5047C156.986 17.2816 157.207 17.1012 157.459 16.9772C157.711 16.8532 157.987 16.7887 158.267 16.7887C158.546 16.7887 158.822 16.8532 159.074 16.9772C159.326 17.1012 159.547 17.2816 159.72 17.5047C160.122 18.2345 160.354 19.0479 160.4 19.8828C160.513 20.995 160.589 22.5678 160.589 24.6388L160.586 28.0548Z" fill="#6A615A"/>
<path d="M146.734 13.1704V39.3692H142.203L141.712 36.1473H141.599C141.129 37.2417 140.352 38.171 139.364 38.8191C138.377 39.4671 137.224 39.8053 136.049 39.7911C131.604 39.7799 131.11 35.9552 131.065 32.7333V13.1704H136.879V32.3856C136.82 33.2348 136.949 34.0866 137.257 34.8785C137.793 35.945 139.182 35.6725 139.938 35.1469C140.374 34.8475 140.725 34.4374 140.957 33.9574V13.1704H146.734Z" fill="#6A615A"/>
</svg>
