<svg width="199" height="33" viewBox="0 0 199 33" fill="none" xmlns="http://www.w3.org/2000/svg">
<path d="M196.138 23.9416C196.249 23.9416 196.939 23.9253 197.189 23.9253C197.441 23.9252 197.684 24.0194 197.872 24.1898C198.06 24.3603 198.18 24.5952 198.208 24.8495V27.1878C198.161 27.3474 198.208 27.9208 197.236 28.0012H195.95C186.37 28.0012 186.7 18.5715 186.7 18.5715V1.7334C186.699 1.48508 186.794 1.24621 186.964 1.0677C187.134 0.889193 187.365 0.785145 187.61 0.777726H189.789C190.038 0.781146 190.275 0.882931 190.451 1.06142C190.627 1.23991 190.727 1.481 190.73 1.7334V5.27345H198.084C198.311 5.30495 198.521 5.41326 198.681 5.58091C198.84 5.74857 198.939 5.9658 198.962 6.19761V8.55527C198.931 8.77622 198.828 8.98011 198.668 9.13346C198.509 9.28681 198.303 9.38049 198.084 9.39911H190.73V18.3987C190.73 18.4302 190.43 23.9579 196.139 23.9416" fill="#6A615A"/>
<path d="M174.376 27.0477C174.37 27.2993 174.269 27.5388 174.094 27.7167C173.919 27.8946 173.683 27.9972 173.436 28.0034H171.272C171.027 27.9989 170.793 27.8957 170.623 27.7166C170.452 27.5374 170.358 27.2969 170.362 27.0477V14.7358C170.362 14.7358 170.017 5.3062 179.612 5.3062H183.736C184.723 5.3855 184.66 5.95891 184.707 6.11954V8.45789C184.679 8.71222 184.56 8.94705 184.372 9.11752C184.184 9.28799 183.941 9.38216 183.689 9.38204C183.437 9.38204 179.91 9.36578 179.801 9.36578C174.109 9.34951 174.391 14.8772 174.391 14.8772V27.0467H174.375" fill="#6A615A"/>
<path d="M123.684 24.2447C123.794 24.2447 124.485 24.2284 124.735 24.2284C124.987 24.2283 125.23 24.3225 125.418 24.4929C125.606 24.6634 125.726 24.8983 125.754 25.1526V27.4909C125.707 27.6505 125.754 28.2239 124.782 28.3043H123.496C113.901 28.3043 114.245 18.8746 114.245 18.8746V2.05683C114.244 1.80851 114.339 1.56965 114.509 1.39114C114.678 1.21263 114.91 1.10858 115.155 1.10116H117.318C117.567 1.10458 117.804 1.20636 117.98 1.38485C118.156 1.56334 118.256 1.80443 118.259 2.05683V5.59282H125.61C125.837 5.62432 126.047 5.73262 126.207 5.90028C126.366 6.06793 126.465 6.28517 126.488 6.51697V8.87362C126.457 9.09457 126.354 9.29846 126.194 9.45181C126.035 9.60515 125.829 9.69883 125.61 9.71746H118.256V18.717C118.287 18.7333 117.99 24.2599 123.681 24.2437" fill="#6A615A"/>
<path d="M79.3434 9.43151L86.43 9.41524C87.716 9.57486 88.1704 10.2438 88.1704 11.7882V13.365C88.0763 14.5281 87.9702 15.7379 85.8345 15.7379H77.2898V11.8359C77.3368 9.57384 78.4497 9.49759 79.3434 9.43049V9.43151ZM89.7516 23.8774L79.7167 23.8937C77.4589 23.8937 77.2708 22.938 77.2708 19.9754V19.8483H85.8776C89.8287 19.8321 92.0715 17.4429 92.1966 13.1108V11.8044C92.1966 7.72655 89.7817 5.28958 85.7215 5.28958H79.7037C75.5484 5.3211 73.4478 7.53541 73.2906 12.0749L73.2747 19.9592C73.2747 23.9415 74.0433 28.0031 79.7498 28.0031H89.7576C89.9018 28.0235 90.0486 28.011 90.1874 27.9666C90.3262 27.9221 90.4535 27.8468 90.5601 27.7462C90.6666 27.6455 90.7498 27.522 90.8035 27.3846C90.8572 27.2472 90.8801 27.0993 90.8705 26.9518V24.7863C90.8545 24.4681 90.7134 23.8947 89.7576 23.8784" fill="#6A615A"/>
<path d="M162.053 23.8807L159.214 23.9285H155.656C153.821 23.9285 153.21 23.3185 153.21 21.5078V11.8393C153.241 9.5619 154.355 9.5009 155.248 9.4338L161.645 9.41754C163.903 9.41754 164.091 10.3732 164.091 13.3195V21.459C164.075 23.7364 162.946 23.8167 162.053 23.8797V23.8807ZM168.12 13.3348C168.12 9.35247 167.352 5.29086 161.645 5.29086H155.593C151.438 5.32238 149.338 7.53669 149.18 12.0761V21.5058C149.18 25.5836 151.595 28.0206 155.656 28.0206H161.692C165.848 27.9891 167.948 25.7748 168.105 21.2353V13.3338H168.121" fill="#6A615A"/>
<path d="M65.3293 23.8307L62.4911 23.847H58.8382C56.9877 23.847 56.3763 23.2258 56.3763 21.407L56.3602 9.22217H64.874C67.1478 9.22217 67.3359 10.1778 67.3359 13.1719L67.3519 21.4385C67.3209 23.7006 66.239 23.7636 65.3293 23.8277V23.8307ZM71.4131 13.1719C71.4131 9.15812 70.6445 5.065 64.89 5.065H56.3602V1.48326C56.3569 1.23121 56.257 0.990412 56.0817 0.81198C55.9064 0.633548 55.6696 0.531532 55.4215 0.527588H53.2198C52.9722 0.533775 52.7364 0.636448 52.5613 0.814348C52.3862 0.992248 52.2851 1.23175 52.279 1.48326V21.41C52.279 25.5194 54.741 27.9727 58.8332 27.9727H64.98C69.1353 27.9411 71.236 25.7268 71.3931 21.1874V13.175H71.4091" fill="#6A615A"/>
<path d="M106.03 23.8806L99.052 23.8969C97.6569 23.7698 97.1705 23.1161 97.1705 21.5077V19.9278C97.2646 18.7647 97.3707 17.5549 99.5064 17.5549H108.051L108.082 21.4731C108.035 23.7505 106.922 23.8115 106.029 23.8786L106.03 23.8806ZM112.08 16.9184V13.3336C112.08 9.35134 111.312 5.28974 105.605 5.28974H95.5873C95.4431 5.26933 95.2963 5.2818 95.1576 5.32624C95.0188 5.37068 94.8914 5.44596 94.7849 5.54663C94.6783 5.6473 94.5951 5.77083 94.5414 5.90823C94.4877 6.04563 94.4648 6.19346 94.4744 6.34098V8.49124C94.4744 8.82572 94.6155 9.39913 95.5753 9.41539L105.61 9.39913C107.868 9.39913 108.056 10.3548 108.056 13.3174V13.4445H99.4493C95.4982 13.4607 93.2444 15.8499 93.1304 20.182V21.4884C93.1304 25.5663 95.5453 28.0032 99.6055 28.0032H103.18L103.196 28.0195H105.673C109.829 27.988 111.929 25.7737 112.086 21.2342V16.9174" fill="#6A615A"/>
<path d="M142.39 23.3845C141.847 23.8126 141.162 24.0121 140.478 23.9416H132.027V11.8686C132.027 10.0529 132.669 9.41541 134.473 9.41541H141.168C141.619 9.44687 142.048 9.62513 142.391 9.92374C142.925 10.4809 142.925 11.4843 142.909 12.6474C142.909 12.7115 142.893 20.4839 142.893 20.6588C142.924 21.8219 142.924 22.8253 142.392 23.3825L142.39 23.3845ZM146.971 13.2523C146.971 9.12667 146.187 5.28873 140.496 5.28873H134.491C130.43 5.28873 128.016 7.74196 128.016 11.8514L127.985 31.4274C127.985 32.0171 128.267 32.3831 128.737 32.3831H131.089C131.337 32.3769 131.573 32.2742 131.748 32.0963C131.923 31.9184 132.024 31.6789 132.03 31.4274V27.988H140.482C146.173 27.988 146.957 24.1653 146.957 20.0244V18.2401L146.973 13.2584" fill="#6A615A"/>
<path d="M36.5727 17.0966C36.5734 14.6097 35.9751 12.1604 34.83 9.96229C33.6849 7.76422 32.0277 5.88416 30.0031 4.4861C27.9785 3.08803 25.6479 2.21444 23.2146 1.94152C20.7813 1.66859 18.3193 2.00462 16.0432 2.9203C13.7671 3.83598 11.7461 5.30349 10.1565 7.19483C8.56695 9.08616 7.45704 11.3439 6.92362 13.7711C6.3902 16.1982 6.44947 18.7211 7.09626 21.1197C7.74305 23.5182 8.95771 25.7196 10.6343 27.5317C10.8051 27.7141 11.0397 27.8207 11.2874 27.8285C11.5351 27.8363 11.7758 27.7447 11.9573 27.5734L13.5716 26.0199C13.6601 25.9361 13.7313 25.8353 13.7813 25.7234C13.8312 25.6115 13.8589 25.4906 13.8627 25.3678C13.8665 25.2449 13.8464 25.1226 13.8035 25.0077C13.7606 24.8928 13.6957 24.7876 13.6126 24.6983C12.1569 23.1217 11.1869 21.1471 10.822 19.0175C10.457 16.888 10.7131 14.6965 11.5587 12.7129C12.4043 10.7294 13.8025 9.04034 15.5811 7.85384C17.3597 6.66734 19.4411 6.03517 21.5689 6.03517C23.6967 6.03517 25.7781 6.66734 27.5567 7.85384C29.3353 9.04034 30.7335 10.7294 31.5791 12.7129C32.4247 14.6965 32.6808 16.888 32.3159 19.0175C31.9509 21.1471 30.9809 23.1217 29.5252 24.6983C29.4421 24.7876 29.3773 24.8928 29.3344 25.0077C29.2914 25.1226 29.2713 25.2449 29.2751 25.3678C29.2789 25.4906 29.3066 25.6115 29.3566 25.7234C29.4065 25.8353 29.4778 25.9361 29.5662 26.0199L31.1785 27.5734C31.3602 27.7444 31.6008 27.8359 31.8484 27.8281C32.096 27.8203 32.3306 27.7139 32.5015 27.5317C35.1168 24.7067 36.5728 20.9747 36.5727 17.0966Z" fill="#6A615A"/>
<path d="M42.2362 17.0107C42.2353 14.9463 41.9286 12.8937 41.3265 10.9219C41.2473 10.6888 41.0829 10.4955 40.8675 10.382C40.652 10.2685 40.4018 10.2434 40.1686 10.3119L38.0399 10.9839C37.9228 11.0191 37.8136 11.0776 37.7189 11.156C37.6242 11.2344 37.5456 11.3311 37.4879 11.4405C37.4302 11.5499 37.3945 11.6698 37.3827 11.7934C37.3709 11.9169 37.3834 12.0416 37.4194 12.1602C37.8978 13.7312 38.1417 15.3662 38.143 17.0107C38.1406 19.9374 37.3624 22.8094 35.8902 25.3251C35.8262 25.4304 35.7839 25.5479 35.7659 25.6703C35.7479 25.7928 35.7545 25.9176 35.7854 26.0374C35.8163 26.1572 35.8708 26.2693 35.9456 26.3671C36.0203 26.4648 36.1139 26.5461 36.2205 26.6061L38.122 27.761C38.3334 27.8903 38.5864 27.9296 38.8262 27.8706C39.066 27.8116 39.2732 27.659 39.403 27.4459C41.265 24.2945 42.244 20.6862 42.2342 17.0107" fill="#6A615A"/>
<path d="M7.24459 25.3264C6.09566 23.3635 5.36581 21.1771 5.10236 18.9091C4.83892 16.6411 5.04777 14.3422 5.71538 12.1615C5.75138 12.0429 5.76386 11.9182 5.7521 11.7947C5.74034 11.6711 5.70457 11.5512 5.64686 11.4418C5.58915 11.3324 5.51065 11.2357 5.4159 11.1573C5.32116 11.079 5.21205 11.0205 5.09489 10.9852L2.96621 10.3132C2.73302 10.2399 2.4808 10.2628 2.2641 10.377C2.04741 10.4911 1.88367 10.6874 1.8083 10.9232C0.969332 13.6637 0.706937 16.5528 1.03814 19.403C1.36934 22.2532 2.28675 25.0008 3.73082 27.4675C3.85987 27.6815 4.06714 27.8348 4.30724 27.8939C4.54734 27.953 4.80069 27.913 5.01183 27.7827L6.91332 26.6278C7.12143 26.4946 7.27155 26.2857 7.33295 26.0437C7.39435 25.8018 7.36238 25.5452 7.24359 25.3264" fill="#6A615A"/>
</svg>
