<svg xmlns="http://www.w3.org/2000/svg" viewBox="0 0 517.48 156.48"><defs><style>.cls-1,.cls-2{fill:#141414;}.cls-2{fill-rule:evenodd;}</style></defs><g id="Layer_2" data-name="Layer 2"><g id="Layer_1-2" data-name="Layer 1"><path class="cls-1" d="M232.29,60.85H188.72V83.23h38.69V95.37H188.72v23.81h43.57v12.5h-57.5V48.35h57.5Z"/><path class="cls-1" d="M296,93v38.69H282.76V95.13c0-8.69-5.12-13.92-12.26-13.92-8.22,0-14.05,5.47-14.05,14.52v36H243.24V70.85h13.21v8.57c3.81-6.9,10.47-9.88,17.5-9.88C286.69,69.54,296,78.83,296,93Z"/><path class="cls-1" d="M363.34,104.18H319.06c.95,11.79,7.38,17.38,16.19,17.38,7.62,0,13.45-3.33,16.9-12.26l11.19,4.28C358.22,127.27,347.51,133,335.49,133c-17.38,0-29.76-12.74-29.76-31.79S318,69.54,335.13,69.54c16.54,0,28.33,12.62,28.33,31.31A30.88,30.88,0,0,1,363.34,104.18Zm-43.92-9.4h30.47C348.22,85,342.63,80.49,335,80.49,326.68,80.49,321.2,85.37,319.42,94.78Z"/><rect class="cls-1" x="373.81" y="70.85" width="13.21" height="60.83"/><path class="cls-1" d="M397.38,101.2c0-18.8,13-31.66,30-31.66,12.85,0,24.16,6.31,28.69,21.31l-11.79,4.28c-3.21-10-8.81-13.81-16.9-13.81-8.81,0-16.55,6.79-16.55,19.88s7.74,20,16.55,20c8.09,0,13.69-3.81,16.9-13.8l11.79,4.28c-4.53,15-15.84,21.31-28.69,21.31C410.35,133,397.38,120.13,397.38,101.2Z"/><path class="cls-1" d="M517.48,93v38.69H504.27V95.13c0-8.69-5.12-13.92-12.26-13.92-8.21,0-14.05,5.47-14.05,14.52v36H464.75V48.35H478V79.42c3.81-6.9,10.48-9.88,17.5-9.88C508.2,69.54,517.48,78.83,517.48,93Z"/><path class="cls-2" d="M380.54,39.67h0a.27.27,0,0,0-.23.23c-1.15,5.89-4.42,9.61-10.63,10.64a.26.26,0,0,0-.23.2h0v0h0v0h0v0h0v0a.27.27,0,0,0,.23.2c6.21,1,9.48,4.74,10.63,10.63a.26.26,0,0,0,.23.23h0a.26.26,0,0,0,.25-.23c1.14-5.89,4.41-9.61,10.63-10.64a.25.25,0,0,0,.23-.2h0v0h0v0h0v0h0v0a.25.25,0,0,0-.23-.19c-6.21-1-9.47-4.75-10.62-10.63a.28.28,0,0,0-.24-.24h0Z"/><path class="cls-1" d="M105.24,99.5h11c-.5-1.39-1.29-3.49-2.36-6-2-4.57-3.35-7-6.77-13.72-3.94-7.71-3.17-6.58-4.56-9-3.49-6.21-5.28-9.39-8.78-12.19a24.13,24.13,0,0,0-9.93-4.66,34.05,34.05,0,0,0,9.64-10.12,35.15,35.15,0,0,0,5-17.57,37.83,37.83,0,0,0-1.89-13.47A36.46,36.46,0,0,0,89.13,0L83.81,4.58a29.5,29.5,0,0,1,8.13,26.48H86.37A28.67,28.67,0,0,1,73.84,28a28.13,28.13,0,0,1-7.06-5.12l-4.72,4.76a32.9,32.9,0,0,0,7.77,5.71,34.11,34.11,0,0,0,16.25,3.91H89.8c-.52,1-7.29,13.9-22.09,15.67-12.91,1.54-21.77-6.6-23-7.75l-4.91,4.3A35.55,35.55,0,0,0,67.07,59l-10.84,8,5.83,6.54a11.13,11.13,0,0,1,3.22-2.53,11.37,11.37,0,0,1,5.15-1.28,11.23,11.23,0,0,1,8,3.47A10.62,10.62,0,0,1,81.21,80,9.5,9.5,0,0,1,70.94,90.17H38v6.3c-.06,1-.14,2-.22,3h-11C24,131.37,10.89,129.2,10.89,129.2L0,156.27H8.52L17,138.43s12.61,1.87,19.48-7.09h2l10.24,24.93h9.17L46.55,128.41l33.09-3.65L68.18,156.48l8.31-.21L94,122h8.45L95,140.3h7.45l13.82-27.15H98.47Z"/></g></g></svg>