<svg xmlns="http://www.w3.org/2000/svg" width="290" height="73" fill="none" viewBox="0 0 290 73"><path fill="#141414" d="M48.6921 12.1823H11.8228V31.0427H44.5576V41.2513H11.8228V61.3197H48.6921V71.8515H0V1.65039H48.6921V12.1823Z"/><path fill="#141414" d="M102.57 39.2606V71.8686H91.4045V41.0726C91.4045 33.7479 87.0735 29.3327 81.0254 29.3327C74.0804 29.3327 69.1428 33.9521 69.1428 41.5745V71.8686H57.9436V20.6044H69.1257V27.8269C72.3548 22.008 77.9928 19.5069 83.9299 19.5069C94.7105 19.5069 102.57 27.325 102.57 39.2606Z"/><path fill="#141414" d="M159.573 48.695H122.106C122.909 58.6229 128.351 63.3359 135.774 63.3359C142.224 63.3359 147.161 60.5285 150.083 53.0082L159.548 56.6152C155.217 68.1509 146.153 72.966 135.979 72.966C121.269 72.966 110.796 62.2384 110.796 46.1854C110.796 30.1324 121.175 19.5069 135.672 19.5069C149.673 19.5069 159.65 30.1324 159.65 45.8792C159.676 46.8185 159.651 47.7585 159.573 48.695ZM122.405 40.7663H148.195C146.785 32.5399 142.044 28.7287 135.603 28.7287C128.547 28.7287 123.917 32.8462 122.405 40.7663Z"/><path fill="#141414" d="M179.614 20.6044H168.432V71.86H179.614V20.6044Z"/><path fill="#141414" d="M188.379 46.1854C188.379 30.3366 199.356 19.5069 213.758 19.5069C224.633 19.5069 234.201 24.8239 238.036 37.4571L228.084 41.0726C225.368 32.642 220.635 29.4348 213.784 29.4348C206.326 29.4348 199.783 35.1516 199.783 46.1854C199.783 57.2192 206.326 63.0381 213.784 63.0381C220.618 63.0381 225.368 59.8309 228.084 51.4003L238.036 55.0499C234.201 67.683 224.633 73 213.758 73C199.356 72.966 188.379 62.1363 188.379 46.1854Z"/><path fill="#141414" d="M290 39.2606V71.8686H278.818V41.0726C278.818 33.7479 274.487 29.3327 268.447 29.3327C261.494 29.3327 256.565 33.9521 256.565 41.5745V71.8686H245.383V1.65039H256.565V27.827C259.785 22.008 265.423 19.5069 271.369 19.5069C282.15 19.5069 290 27.325 290 39.2606Z"/><path fill="#141414" d="M179.614 0H168.432V11.1359H179.614V0Z"/></svg>