<svg xmlns="http://www.w3.org/2000/svg" width="36" height="43" fill="none" viewBox="0 0 36 43"><path fill="#141414" d="M34.7706 26.0995C34.6199 25.6843 34.3827 25.0642 34.0645 24.3223C33.4811 22.9686 33.0596 22.235 32.038 20.2529C30.8601 17.9635 31.089 18.2985 30.6759 17.5676C29.1909 14.9488 28.0493 13.9495 28.0493 13.9495L27.9851 13.8941C28.2 13.8221 28.4205 13.7418 28.6494 13.6449C31.4407 12.4767 32.8084 10.2953 33.4671 9.41222C35.421 6.79894 36.1272 2.8818 35.4657 0L33.2941 0.647782C34.6115 7.61005 28.9258 12.8532 22.651 12.3328C24.51 9.68628 25.8275 6.42245 24.9426 2.4887L22.6706 2.9953C23.3042 5.48677 22.6259 8.43778 21.4703 10.2067C21.127 10.7604 20.7865 11.2919 20.4431 11.8317C17.6519 10.8296 14.8606 7.98654 14.16 4.61476L11.8321 5.32898C12.0889 6.18992 13.5069 10.6026 18.0957 13.0276C18.7517 13.3752 19.4384 13.6624 20.1473 13.8858C19.767 14.1369 19.4051 14.4145 19.0643 14.7163L16.8313 16.4852L18.5758 18.423C18.8463 18.1129 19.1729 17.8557 19.5388 17.6645C20.0158 17.4189 20.5448 17.2889 21.0823 17.2853C21.5255 17.2932 21.9627 17.3884 22.3685 17.5651C22.7743 17.7419 23.1408 17.9968 23.4465 18.3151C23.9519 18.8598 24.2482 19.5633 24.2839 20.3027C24.3161 20.71 24.2586 21.1193 24.1155 21.5024C23.9723 21.8854 23.7469 22.233 23.4548 22.5211C23.1628 22.8092 22.8111 23.0309 22.424 23.1707C22.037 23.3106 21.624 23.3654 21.2135 23.3312H11.366V25.1888C11.3464 25.4988 11.3213 25.7978 11.2962 26.0885H8.00811C7.17073 35.545 3.26297 34.9 3.26297 34.9L0 42.9419H2.54841L5.09962 37.6461C5.09962 37.6461 8.8706 38.1998 10.925 35.5422H11.5251L14.5955 42.9363H17.3365L13.9311 34.6702L23.8289 33.5878C22.6845 36.7252 21.542 39.8626 20.4013 43L22.8855 42.9363L28.1135 32.7794H30.6424L28.4094 38.197H30.6424L34.7762 30.144H29.4728C30.1483 28.7949 30.8229 27.4449 31.4965 26.094L34.7706 26.0995Z"/></svg>