<svg width="179" height="53" viewBox="0 0 179 53" fill="none" xmlns="http://www.w3.org/2000/svg">
<path d="M81.6644 20.6773H66.7925V28.2419H79.9966V32.3364H66.7925V40.3855H81.6644V44.6097H62.0236V16.4531H81.6644V20.6773Z" fill="#EDEAE2"/>
<path d="M103.397 31.538V44.6165H98.8931V32.2647C98.8931 29.3269 97.1461 27.556 94.7065 27.556C91.9051 27.556 89.9135 29.4088 89.9135 32.466V44.6165H85.3961V24.0552H89.9066V26.9521C91.2091 24.6182 93.4833 23.6151 95.8781 23.6151C100.227 23.6151 103.397 26.7508 103.397 31.538Z" fill="#EDEAE2"/>
<path d="M126.39 35.322H111.277C111.601 39.3039 113.796 41.1942 116.79 41.1942C119.392 41.1942 121.384 40.0682 122.562 37.0519L126.38 38.4986C124.633 43.1254 120.977 45.0566 116.873 45.0566C110.939 45.0566 106.715 40.754 106.715 34.3154C106.715 27.8768 110.902 23.6151 116.749 23.6151C122.397 23.6151 126.421 27.8768 126.421 34.1926C126.432 34.5693 126.421 34.9463 126.39 35.322ZM111.398 32.1419H121.8C121.232 28.8424 119.32 27.3138 116.721 27.3138C113.875 27.3138 112.008 28.9652 111.398 32.1419Z" fill="#EDEAE2"/>
<path d="M134.474 24.0552H129.963V44.6131H134.474V24.0552Z" fill="#EDEAE2"/>
<path d="M138.009 34.3154C138.009 27.9587 142.437 23.6151 148.247 23.6151C152.633 23.6151 156.492 25.7476 158.039 30.8146L154.025 32.2647C152.929 28.8833 151.02 27.597 148.257 27.597C145.249 27.597 142.609 29.8899 142.609 34.3154C142.609 38.7409 145.249 41.0747 148.257 41.0747C151.014 41.0747 152.929 39.7884 154.025 36.407L158.039 37.8708C156.492 42.9377 152.633 45.0703 148.247 45.0703C142.437 45.0566 138.009 40.7131 138.009 34.3154Z" fill="#EDEAE2"/>
<path d="M179 31.538V44.6165H174.49V32.2647C174.49 29.3269 172.743 27.556 170.306 27.556C167.502 27.556 165.513 29.4088 165.513 32.466V44.6165H161.003V16.4531H165.513V26.9521C166.812 24.6182 169.087 23.6151 171.485 23.6151C175.833 23.6151 179 26.7508 179 31.538Z" fill="#EDEAE2"/>
<path d="M134.474 15.7912H129.963V20.2576H134.474V15.7912Z" fill="#EDEAE2"/>
<path d="M42.9238 32.1692C42.7377 31.6574 42.4448 30.8931 42.052 29.9786C41.3318 28.3101 40.8115 27.4059 39.5504 24.9629C38.0962 22.1411 38.3788 22.5539 37.8688 21.6531C36.0357 18.4253 34.6264 17.1935 34.6264 17.1935L34.5471 17.1253C34.8124 17.0366 35.0847 16.9376 35.3672 16.8182C38.813 15.3783 40.5014 12.6896 41.3146 11.6011C43.7266 8.38009 44.5984 3.55199 43.7817 0L41.1009 0.798429C42.7273 9.37984 35.7083 15.8423 27.9623 15.2009C30.2572 11.9389 31.8836 7.91605 30.7913 3.06747L27.9864 3.69188C28.7686 6.76276 27.9313 10.4001 26.5047 12.5804C26.0809 13.2628 25.6605 13.9179 25.2367 14.5833C21.7909 13.3481 18.3452 9.84388 17.4803 5.68795L14.6065 6.56827C14.9236 7.62943 16.674 13.0683 22.3388 16.0573C23.1487 16.4857 23.9964 16.8397 24.8714 17.115C24.402 17.4246 23.9552 17.7667 23.5345 18.1387L20.7779 20.319L22.9315 22.7075C23.2655 22.3252 23.6687 22.0081 24.1203 21.7725C24.7092 21.4698 25.3622 21.3096 26.0258 21.3051C26.5729 21.3149 27.1125 21.4322 27.6135 21.6501C28.1145 21.8679 28.5669 22.1821 28.9443 22.5744C29.5682 23.2458 29.934 24.1129 29.9781 25.0243C30.0178 25.5263 29.9469 26.0308 29.7701 26.5029C29.5934 26.9751 29.3151 27.4035 28.9546 27.7586C28.594 28.1137 28.1599 28.3869 27.6821 28.5593C27.2043 28.7317 26.6944 28.7992 26.1877 28.7571H14.0311V31.0466C14.007 31.4288 13.976 31.7973 13.945 32.1555H9.88587C8.85214 43.8112 4.02809 43.0162 4.02809 43.0162L0 52.9283H3.14597L6.29539 46.401C6.29539 46.401 10.9506 47.0834 13.4867 43.8078H14.2275L18.0178 52.9215H21.4016L17.1978 42.733L29.4164 41.3989C28.0036 45.2659 26.5932 49.133 25.185 53L28.2517 52.9215L34.7056 40.4026H37.8275L35.0709 47.08H37.8275L42.9306 37.1543H36.3837C37.2176 35.4914 38.0503 33.8275 38.8819 32.1624L42.9238 32.1692Z" fill="#EDEAE2"/>
</svg>
