<?xml version="1.0" encoding="utf-8"?>
<!-- Generator: Adobe Illustrator 25.3.1, SVG Export Plug-In . SVG Version: 6.00 Build 0)  -->
<svg version="1.1" id="Layer_1" xmlns="http://www.w3.org/2000/svg" xmlns:xlink="http://www.w3.org/1999/xlink" x="0px" y="0px"
	 viewBox="0 0 36 43" style="enable-background:new 0 0 36 43;" xml:space="preserve">
<style type="text/css">
	.st0{fill:#EDEAE2;}
</style>
<path class="st0" d="M34.8,26.1c-0.2-0.4-0.4-1-0.7-1.8c-0.6-1.4-1-2.1-2-4.1c-1.2-2.3-0.9-2-1.4-2.7c-1.5-2.6-2.6-3.6-2.6-3.6
	L28,13.9c0.2-0.1,0.4-0.2,0.7-0.2c2.8-1.2,4.2-3.3,4.8-4.2c2-2.6,2.7-6.5,2-9.4l-2.2,0.6c1.3,7-4.4,12.2-10.6,11.7
	c1.9-2.6,3.2-5.9,2.3-9.8L22.7,3c0.6,2.5,0,5.4-1.2,7.2c-0.3,0.6-0.7,1.1-1,1.6c-2.8-1-5.6-3.8-6.3-7.2l-2.3,0.7
	c0.3,0.9,1.7,5.3,6.3,7.7c0.7,0.3,1.3,0.6,2.1,0.9c-0.4,0.3-0.7,0.5-1.1,0.8l-2.2,1.8l1.7,1.9c0.3-0.3,0.6-0.6,1-0.8
	c0.5-0.2,1-0.4,1.5-0.4c0.4,0,0.9,0.1,1.3,0.3c0.4,0.2,0.8,0.4,1.1,0.8c0.5,0.5,0.8,1.2,0.8,2c0,0.4,0,0.8-0.2,1.2
	c-0.1,0.4-0.4,0.7-0.7,1c-0.3,0.3-0.6,0.5-1,0.6c-0.4,0.1-0.8,0.2-1.2,0.2h-9.8v1.9c0,0.3,0,0.6-0.1,0.9H8c-0.8,9.5-4.7,8.8-4.7,8.8
	l-3.3,8h2.5l2.6-5.3c0,0,3.8,0.6,5.8-2.1h0.6l3.1,7.4h2.7l-3.4-8.3l9.9-1.1c-1.1,3.1-2.3,6.3-3.4,9.4l2.5-0.1l5.2-10.2h2.5l-2.2,5.4
	h2.2l4.1-8.1h-5.3c0.7-1.3,1.4-2.7,2-4L34.8,26.1z"/>
</svg>
