<svg width="208" height="25" viewBox="0 0 208 25" fill="none" xmlns="http://www.w3.org/2000/svg">
<path d="M208 12.4373C208 2.04774 201.621 0.392557 195.52 0.392557H187.235V24.5523H195.52C201.625 24.5167 208 22.8615 208 12.4373ZM203.697 12.4373C203.697 20.1856 199.745 20.6787 195.515 20.6787H193.44C192.875 20.6412 192.311 20.763 191.81 21.0305L190.91 21.6293L190.147 20.8546L190.667 20.5373C191.031 20.2733 191.31 19.9058 191.468 19.481C191.555 19.1492 191.602 18.8077 191.607 18.4643V6.30972C191.601 6.08523 191.578 5.86155 191.538 5.64073C191.408 5.14504 191.112 4.71081 190.701 4.41256L190.181 4.09536L190.944 3.32063L191.844 3.91947C192.041 4.02839 192.25 4.11109 192.468 4.16551C192.537 4.16551 192.78 4.2011 192.849 4.2011H195.551C199.711 4.23668 203.698 4.72977 203.698 12.4424L203.697 12.4373ZM183.244 15.5718V0.392557H178.911V13.9146C178.911 18.4572 178.01 21.0315 173.052 21.0315C168.095 21.0315 167.194 18.4602 167.194 13.9146V0.392557H162.86V15.5708C162.86 21.5927 166.223 24.8685 173.052 24.8685C179.85 24.8695 183.244 21.5947 183.244 15.5718ZM159.463 12.4373C159.463 5.42927 155.059 0.0407715 147.781 0.0407715C140.466 0.0407715 136.063 5.42927 136.063 12.4373C136.063 19.481 140.467 24.8695 147.781 24.8695C155.063 24.8695 159.467 19.5156 159.467 12.4373H159.463ZM155.129 12.4373C155.129 17.5442 152.702 21.0305 147.78 21.0305C142.857 21.0305 140.43 17.5442 140.43 12.4373C140.43 7.36607 142.891 3.87981 147.78 3.87981C152.702 3.87981 155.129 7.36607 155.129 12.4373ZM116.025 24.8695L133.428 21.7706V17.5442L116.546 20.5028L116.061 19.9741C116.581 19.8328 117.794 19.3407 117.794 18.3891V0.357977H113.46V22.3339C113.429 22.6813 113.474 23.0315 113.594 23.3588C113.713 23.6861 113.902 23.9821 114.149 24.2252C114.395 24.4684 114.692 24.6524 115.017 24.7639C115.343 24.8754 115.689 24.9115 116.029 24.8695H116.025ZM90.9958 12.4373C90.9958 7.11901 93.7689 3.87981 98.4486 3.87981C102.228 3.87981 104.828 5.92236 105.382 9.69125H109.716C109.022 3.73951 104.793 0.0417954 98.3796 0.0417954C91.0998 0.0417954 86.6623 5.43027 86.6623 12.4384C86.6623 19.482 91.0998 24.8705 98.3796 24.8705C104.793 24.8705 109.022 21.1728 109.716 15.1855H105.412C104.858 18.9533 102.258 21.0315 98.4787 21.0315C93.7739 21.0305 90.9998 17.7902 90.9998 12.4373H90.9958ZM72.276 16.1706L83.5429 24.412V19.3407L73.9753 12.4729L83.5089 5.60515V0.498281L72.242 8.77418H71.029L59.8322 0.498281V5.56956L69.3657 12.4719L59.8672 19.3397V24.411L71.0991 16.1696L72.276 16.1706ZM32.3745 14.6568H56.1563V10.2545H32.3785L32.3745 14.6568ZM23.4675 24.5187H27.8009V0.357977H19.2382L14.4544 23.3902H13.3455L8.56176 0.357977H0V24.5167H4.33343V4.37291L3.57082 1.4855H4.92289L9.94985 24.5177H17.9231L22.9151 1.4855H24.3022L23.5015 4.37291V24.5177L23.4675 24.5187Z" fill="#6A615A"/>
</svg>
