<svg width="40" height="39" viewBox="0 0 40 39" fill="none" xmlns="http://www.w3.org/2000/svg">
<path d="M20.0862 9.50089C14.5556 9.50089 10.0946 13.9652 10.0946 19.5C10.0946 25.0348 14.5556 29.4991 20.0862 29.4991C25.6169 29.4991 30.0779 25.0348 30.0779 19.5C30.0779 13.9652 25.6169 9.50089 20.0862 9.50089ZM20.0862 26.0007C16.5122 26.0007 13.5904 23.0854 13.5904 19.5C13.5904 15.9146 16.5035 12.9993 20.0862 12.9993C23.669 12.9993 26.5821 15.9146 26.5821 19.5C26.5821 23.0854 23.6603 26.0007 20.0862 26.0007ZM32.8172 9.09188C32.8172 10.3885 31.7736 11.4241 30.4866 11.4241C29.1909 11.4241 28.1561 10.3798 28.1561 9.09188C28.1561 7.80392 29.1996 6.75962 30.4866 6.75962C31.7736 6.75962 32.8172 7.80392 32.8172 9.09188ZM39.4348 11.4589C39.287 8.33477 38.5739 5.56739 36.2868 3.28735C34.0085 1.00731 31.2432 0.293707 28.1213 0.137063C24.9038 -0.0456878 15.26 -0.0456878 12.0425 0.137063C8.92931 0.285005 6.16399 0.998605 3.87695 3.27865C1.5899 5.55869 0.88553 8.32606 0.729003 11.4502C0.546387 14.6701 0.546387 24.3212 0.729003 27.5411C0.876834 30.6652 1.5899 33.4326 3.87695 35.7127C6.16399 37.9927 8.92061 38.7063 12.0425 38.8629C15.26 39.0457 24.9038 39.0457 28.1213 38.8629C31.2432 38.715 34.0085 38.0014 36.2868 35.7127C38.5652 33.4326 39.2783 30.6652 39.4348 27.5411C39.6174 24.3212 39.6174 14.6788 39.4348 11.4589ZM35.2781 30.9959C34.5998 32.7016 33.2867 34.0157 31.5736 34.7032C29.0083 35.7214 22.9211 35.4864 20.0862 35.4864C17.2514 35.4864 11.1555 35.7127 8.59886 34.7032C6.89445 34.0244 5.58136 32.7103 4.89438 30.9959C3.87695 28.4287 4.11174 22.337 4.11174 19.5C4.11174 16.663 3.88564 10.5626 4.89438 8.00407C5.57266 6.29839 6.88575 4.98432 8.59886 4.29683C11.1642 3.27865 17.2514 3.51361 20.0862 3.51361C22.9211 3.51361 29.017 3.28735 31.5736 4.29683C33.278 4.97562 34.5911 6.28969 35.2781 8.00407C36.2955 10.5713 36.0608 16.663 36.0608 19.5C36.0608 22.337 36.2955 28.4374 35.2781 30.9959Z" fill="#6A615A"/>
</svg>
