<svg width="40" height="39" viewBox="0 0 40 39" fill="none" xmlns="http://www.w3.org/2000/svg">
<path d="M33.8985 5.66719C30.2529 2.01094 25.3978 0 20.2382 0C9.58842 0 0.922396 8.67054 0.922396 19.3259C0.922396 22.7297 1.80988 26.0551 3.49784 28.9888L0.75708 39L10.998 36.31C13.817 37.8509 16.9928 38.6605 20.2295 38.6605H20.2382C30.8793 38.6605 39.7368 29.99 39.7368 19.3346C39.7368 14.1723 37.5442 9.32344 33.8985 5.66719ZM20.2382 35.4047C17.3496 35.4047 14.5218 34.6299 12.0595 33.1674L11.4765 32.8192L5.40332 34.4123L7.02168 28.4839L6.63884 27.8746C5.02919 25.3152 4.18521 22.3641 4.18521 19.3259C4.18521 10.4725 11.3895 3.26451 20.2469 3.26451C24.5364 3.26451 28.5649 4.93594 31.5928 7.97411C34.6207 11.0123 36.4827 15.0429 36.474 19.3346C36.474 28.1967 29.087 35.4047 20.2382 35.4047ZM29.0435 23.3739C28.5649 23.1301 26.1896 21.9636 25.7459 21.8069C25.3021 21.6415 24.9802 21.5632 24.6583 22.0507C24.3363 22.5382 23.414 23.6176 23.1269 23.9484C22.8485 24.2705 22.5614 24.3141 22.0828 24.0703C19.2463 22.6513 17.3844 21.5371 15.5137 18.3248C15.0177 17.4717 16.0096 17.5326 16.9319 15.6871C17.0885 15.365 17.0102 15.0864 16.8884 14.8426C16.7666 14.5989 15.8008 12.2223 15.4006 11.256C15.009 10.3158 14.6088 10.4464 14.313 10.429C14.0345 10.4116 13.7126 10.4116 13.3907 10.4116C13.0688 10.4116 12.5467 10.5335 12.103 11.0123C11.6592 11.4998 10.415 12.6663 10.415 15.0429C10.415 17.4194 12.1465 19.7176 12.3814 20.0397C12.625 20.3618 15.7834 25.2368 20.6298 27.3348C23.6925 28.658 24.8932 28.7712 26.4245 28.5449C27.3555 28.4056 29.2784 27.3783 29.6786 26.2467C30.0789 25.115 30.0789 24.1487 29.9571 23.9484C29.844 23.7308 29.522 23.6089 29.0435 23.3739Z" fill="#6A615A"/>
</svg>
