<svg xmlns="http://www.w3.org/2000/svg" width="391" height="491" fill="none" viewBox="0 0 391 491"><path fill-rule="evenodd" stroke="#6A615A" d="M63.446 1C61.7343 1.23852 60.1471 2.0286 58.9248 3.25046C57.7026 4.47233 56.912 6.05937 56.673 7.771C22.824 181.145 -73.427 290.645 -256.227 320.963C-257.832 321.106 -259.351 321.753 -260.567 322.81C-261.783 323.867 -262.634 325.281 -263 326.85V326.85C-262.596 328.399 -261.733 329.79 -260.524 330.841C-259.315 331.891 -257.818 332.552 -256.227 332.737C-73.435 362.173 22.82 472.261 56.673 645.637C56.8635 647.367 57.6384 648.981 58.8698 650.212C60.1011 651.443 61.7154 652.217 63.446 652.407V652.407C65.2804 652.348 67.0326 651.632 68.3832 650.389C69.7338 649.147 70.593 647.46 70.804 645.637C104.361 472.262 200.616 362.763 383.704 332.444C385.323 332.346 386.865 331.716 388.089 330.651C389.314 329.587 390.152 328.147 390.473 326.557V326.557C390.096 325.021 389.234 323.647 388.015 322.64C386.795 321.632 385.284 321.044 383.704 320.964C200.904 291.529 104.947 181.146 71.098 8.064C70.8562 6.27578 70.0343 4.6163 68.7585 3.34024C67.4826 2.06418 65.8232 1.24204 64.035 1H63.446V1Z" clip-rule="evenodd"/></svg>